<svg width="20" height="20" viewBox="0 0 20 20" fill="none" xmlns="http://www.w3.org/2000/svg">
<path d="M14.1667 6.66675H15C15.8841 6.66675 16.7319 7.01794 17.357 7.64306C17.9821 8.26818 18.3333 9.11603 18.3333 10.0001C18.3333 10.8841 17.9821 11.732 17.357 12.3571C16.7319 12.9822 15.8841 13.3334 15 13.3334H14.1667M14.1667 6.66675H2.5V14.1667C2.5 15.0508 2.85119 15.8986 3.47631 16.5238C4.10143 17.1489 4.94928 17.5001 5.83333 17.5001H10.8333C11.7174 17.5001 12.5652 17.1489 13.1904 16.5238C13.8155 15.8986 14.1667 15.0508 14.1667 14.1667V6.66675ZM5 1.66675V3.33341M8.33333 1.66675V3.33341M11.6667 1.66675V3.33341" stroke="#09090B" stroke-width="2" stroke-linecap="round" stroke-linejoin="round"/>
</svg>
